<svg width="21" height="21" viewBox="0 0 21 21" fill="none" xmlns="http://www.w3.org/2000/svg">
<path d="M10.3485 10.3485C10.8228 10.3485 11.229 10.1795 11.567 9.84145C11.9045 9.50397 12.0733 9.09808 12.0733 8.62377C12.0733 8.14946 11.9045 7.74328 11.567 7.40523C11.229 7.06775 10.8228 6.89901 10.3485 6.89901C9.87419 6.89901 9.4683 7.06775 9.13082 7.40523C8.79277 7.74328 8.62374 8.14946 8.62374 8.62377C8.62374 9.09808 8.79277 9.50397 9.13082 9.84145C9.4683 10.1795 9.87419 10.3485 10.3485 10.3485ZM10.3485 18.6489C10.2335 18.6489 10.1185 18.6274 10.0036 18.5843C9.88857 18.5411 9.78796 18.4836 9.70172 18.4118C7.60326 16.5577 6.0366 14.8366 5.00175 13.2487C3.96689 11.6602 3.44946 10.1761 3.44946 8.79625C3.44946 6.6403 4.1431 4.92272 5.53039 3.64353C6.91709 2.36433 8.52313 1.72473 10.3485 1.72473C12.1739 1.72473 13.7799 2.36433 15.1666 3.64353C16.5539 4.92272 17.2475 6.6403 17.2475 8.79625C17.2475 10.1761 16.7301 11.6602 15.6953 13.2487C14.6604 14.8366 13.0937 16.5577 10.9953 18.4118C10.909 18.4836 10.8084 18.5411 10.6935 18.5843C10.5785 18.6274 10.4635 18.6489 10.3485 18.6489Z" fill="#FF5F5F"/>
</svg>
